<svg height="49" viewBox="0 0 100 49" width="100" xmlns="http://www.w3.org/2000/svg"><g fill="none" fill-rule="evenodd" transform="translate(0 .000004)"><path d="m87.556938 15.6125066c-5.8144853.8644505-11.2434124 4.344475-16.4423379 6.8978263 2.9111316 3.3933572 8.3600588 4.1100289 12.6245333 4.0578063 3.7378041-.0455558 11.0923003-.9322287 12.9845358-4.8578119 2.812242-5.8378189-5.7800407-6.6011576-9.1667312-6.0978207z"/><path d="m15.4208749 33.4304097c3.0011323 3.2344672 10.7022976 3.615581 14.4123237.8344504-4.8344785-3.1878003-11.8267499-3.6611369-14.4123237-.8344504z"/><path d="m91.8925241 12.1291488c-9.2467317-2.15334853-16.6378948 3.6789147-24.6990627 6.7933811-4.57781 1.7689013-8.2511691-2.3377942-11.8545278-4.6355882-3.8989163-2.485573-7.968945-4.70003306-12.1389743-6.69560265-8.1500574-3.90113856-16.9645638-7.67116509-26.1524063-7.59005341-6.8322703.06000043-13.73676328 3.22446713-16.2212252 10.00007036-.48778121 1.3288982-1.44445461 4.0289172-.25111288 5.260037 1.3088981 1.3500095 2.653352.4533365 3.14779993-.860006.5988931-1.5911223.16111224-3.4033573.91333976-5.06003564.67333807-1.48445489 1.75334567-2.81557537 3.05891041-3.7922489 8.08339018-6.0455981 18.52568588-2.14779289 26.57018698 1.49334384 9.1722867 4.1500292 17.5401234 9.670068 26.1190726 14.8889936-5.1867031 3.5789141-12.1689745 5.3922602-17.9490151 7.9400559-2.9722432 1.3100092-5.4722608 2.4700174-8.7578394 1.8044572-3.2455784-.6577825-6.3656004-1.9266803-9.6300678-2.596685-3.7111372-.7622276-12.0389736-2.1077926-11.1000781 4.4233645.7266718 5.0555911 8.7478393 5.7511515 12.677867 5.5678169 3.0422436-.1422232 5.755596-1.5333441 8.7345059-1.803346 2.6144628-.2366683 5.1655919 1.1511192 7.436719 2.288905 4.8811454 2.4433505 9.63229 5.2911483 14.7589927 7.203384 5.3733711 2.0044586 10.4467402 1.8844577 15.9690012.6266711 4.4922539-1.0233405 2.8244644-5.8467078-1.4555658-4.6422549-2.4366838.6855604-2.756686 2.2322379-5.6055949 2.0311254-2.9311318-.2066681-5.3633711-.8166724-8.0733902-1.9766806-5.410038-2.3144607-10.6956308-4.9044789-16.041224-7.3600518.0266669-2.3200163 11.4345249-5.2055921 13.5900957-5.9755976 4.6078102-1.6466782 9.7122905-4.5455875 14.5978804-2.8466867 4.6044769 1.6011224 8.7511727 3.8466938 13.7600969 3.8544716 4.5833655.0077778 9.5356226-.8666728 13.3589828-3.5355804 6.9133821-4.8289229 2.0077919-13.228982-4.7633668-14.8056597zm-76.4716492 21.3012609c2.5844627-2.8255754 9.5778452-2.3522387 14.4123237.8344504-3.7100261 2.7811306-11.4100803 2.4000168-14.4123237-.8344504zm81.3016832-11.7200824c-1.8922356 3.9266943-9.2456206 4.8122561-12.9845358 4.8578119-4.2644745.0522226-9.7134017-.6644491-12.6245333-4.0578063 5.2000366-2.5544624 10.6289637-6.0344869 16.4423379-6.8978263 3.3878016-.5033369 11.9800843.2600018 9.1667312 6.0978207z" fill="#fff" fill-rule="nonzero"/></g></svg>